<mxfile host="Electron" agent="Mozilla/5.0 (Macintosh; Intel Mac OS X 10_15_7) AppleWebKit/537.36 (KHTML, like Gecko) draw.io/28.1.2 Chrome/138.0.7204.243 Electron/37.4.0 Safari/537.36" version="28.1.2">
  <diagram name="Page-1" id="aWMe-eOobzP_0gBUppJS">
    <mxGraphModel dx="945" dy="631" grid="1" gridSize="10" guides="1" tooltips="1" connect="1" arrows="1" fold="1" page="1" pageScale="1" pageWidth="850" pageHeight="1100" math="0" shadow="0">
      <root>
        <mxCell id="0" />
        <mxCell id="1" parent="0" />
        <mxCell id="BUDvxL6_Eut-VegypJK3-1" value="VDCaaS - Virtual Data Center" style="rounded=1;whiteSpace=wrap;html=1;fillColor=#dae8fc;strokeColor=#6c8ebf;fontSize=16;" parent="1" vertex="1">
          <mxGeometry x="40" y="487" width="440" height="60" as="geometry" />
        </mxCell>
        <mxCell id="BUDvxL6_Eut-VegypJK3-2" value="OSCaaS - Open Shift Cluster" style="rounded=1;whiteSpace=wrap;html=1;fillColor=#0050ef;fontColor=#ffffff;strokeColor=#001DBC;fontSize=15;" parent="1" vertex="1">
          <mxGeometry x="60" y="427" width="400" height="60" as="geometry" />
        </mxCell>
        <mxCell id="BUDvxL6_Eut-VegypJK3-3" value="VMaaS" style="rounded=1;whiteSpace=wrap;html=1;fillColor=#dae8fc;strokeColor=#6c8ebf;fontSize=15;" parent="1" vertex="1">
          <mxGeometry x="105" y="367" width="70" height="60" as="geometry" />
        </mxCell>
        <mxCell id="BUDvxL6_Eut-VegypJK3-5" value="GPUaaS" style="rounded=1;whiteSpace=wrap;html=1;fillColor=#f8cecc;strokeColor=#b85450;fontSize=15;" parent="1" vertex="1">
          <mxGeometry x="175" y="367" width="70" height="60" as="geometry" />
        </mxCell>
        <mxCell id="BUDvxL6_Eut-VegypJK3-6" value="Container&lt;div&gt;aaS&lt;/div&gt;" style="rounded=1;whiteSpace=wrap;html=1;fillColor=#f8cecc;strokeColor=#b85450;fontSize=15;" parent="1" vertex="1">
          <mxGeometry x="315" y="367" width="70" height="60" as="geometry" />
        </mxCell>
        <mxCell id="BUDvxL6_Eut-VegypJK3-7" value="Model&lt;div&gt;-aaS&lt;/div&gt;" style="rounded=1;whiteSpace=wrap;html=1;fillColor=#f8cecc;strokeColor=#b85450;fontSize=15;" parent="1" vertex="1">
          <mxGeometry x="245" y="367" width="70" height="60" as="geometry" />
        </mxCell>
        <mxCell id="BUDvxL6_Eut-VegypJK3-8" value="&lt;b&gt;Fig 1 Service Offerings:&lt;/b&gt; Most of this repository describes services that are in the current release (dark blue) or under development (light blue). It may not discuss services that are on the roadmap or that are speculative (red)." style="text;html=1;align=center;verticalAlign=middle;whiteSpace=wrap;rounded=0;fontSize=13;" parent="1" vertex="1">
          <mxGeometry x="10" y="540" width="500" height="80" as="geometry" />
        </mxCell>
      </root>
    </mxGraphModel>
  </diagram>
</mxfile>
